<svg width="48" height="48" viewBox="0 0 48 48" fill="none" xmlns="http://www.w3.org/2000/svg">
<g clip-path="url(#clip0_27_149)">
<path d="M14.3394 43.95C13.3465 43.95 12.5 43.5965 11.8 42.8894C11.1 42.1823 10.75 41.3323 10.75 40.3394C10.75 39.3465 11.1035 38.5 11.8106 37.8C12.5177 37.1 13.3677 36.75 14.3606 36.75C15.3535 36.75 16.2 37.1035 16.9 37.8106C17.6 38.5177 17.95 39.3677 17.95 40.3606C17.95 41.3535 17.5965 42.2 16.8894 42.9C16.1823 43.6 15.3323 43.95 14.3394 43.95ZM34.3394 43.95C33.3465 43.95 32.5 43.5965 31.8 42.8894C31.1 42.1823 30.75 41.3323 30.75 40.3394C30.75 39.3465 31.1035 38.5 31.8106 37.8C32.5177 37.1 33.3677 36.75 34.3606 36.75C35.3535 36.75 36.2 37.1035 36.9 37.8106C37.6 38.5177 37.95 39.3677 37.95 40.3606C37.95 41.3535 37.5965 42.2 36.8894 42.9C36.1823 43.6 35.3323 43.95 34.3394 43.95ZM10.25 7.95H39.7037C40.4692 7.95 41.0516 8.3 41.4509 9C41.8503 9.7 41.85 10.4 41.45 11.1L34.7 23.25C34.3333 23.8833 33.8573 24.3917 33.272 24.775C32.6867 25.1583 32.046 25.35 31.35 25.35H16.2L13.4 30.55H36.45C36.875 30.55 37.2312 30.6946 37.5187 30.9837C37.8062 31.2729 37.95 31.6313 37.95 32.0588C37.95 32.4862 37.8062 32.8417 37.5187 33.125C37.2312 33.4083 36.875 33.55 36.45 33.55H13.85C12.45 33.55 11.4417 33.0833 10.825 32.15C10.2083 31.2167 10.2167 30.1667 10.85 29L14.05 23.1L6.44999 7H4.04999C3.62499 7 3.26874 6.85542 2.98124 6.56625C2.69374 6.27705 2.54999 5.91872 2.54999 5.49125C2.54999 5.06375 2.69374 4.70833 2.98124 4.425C3.26874 4.14167 3.62499 4 4.04999 4H7.44999C7.74999 4 8.01999 4.07392 8.25999 4.22175C8.49999 4.36958 8.67999 4.579 8.79999 4.85L10.25 7.95Z" fill="#97B35B"/>
</g>
<defs>
<clipPath id="clip0_27_149">
<rect width="48" height="48" fill="white"/>
</clipPath>
</defs>
</svg>
