<svg width="48" height="48" viewBox="0 0 48 48" fill="none" xmlns="http://www.w3.org/2000/svg">
<g clip-path="url(#clip0_27_140)">
<path d="M26.75 29.05H19.75C19.3167 29.05 18.9583 29.1917 18.675 29.475C18.3917 29.7583 18.25 30.1167 18.25 30.55C18.25 30.9833 18.3917 31.3417 18.675 31.625C18.9583 31.9083 19.3167 32.05 19.75 32.05H22.65V32.8C22.65 33.2333 22.7917 33.5917 23.075 33.875C23.3583 34.1583 23.7167 34.3 24.15 34.3C24.5833 34.3 24.9417 34.1583 25.225 33.875C25.5083 33.5917 25.65 33.2333 25.65 32.8V32.05H28.05C28.55 32.05 28.9583 31.8583 29.275 31.475C29.5917 31.0917 29.75 30.6333 29.75 30.1V24.35C29.75 23.8167 29.5917 23.3583 29.275 22.975C28.9583 22.5917 28.55 22.4 28.05 22.4H21.25V18.95H28.25C28.6833 18.95 29.0417 18.8083 29.325 18.525C29.6083 18.2417 29.75 17.8833 29.75 17.45C29.75 17.0167 29.6083 16.6583 29.325 16.375C29.0417 16.0917 28.6833 15.95 28.25 15.95H25.65V15.2C25.65 14.7667 25.5083 14.4083 25.225 14.125C24.9417 13.8417 24.5833 13.7 24.15 13.7C23.7167 13.7 23.3583 13.8417 23.075 14.125C22.7917 14.4083 22.65 14.7667 22.65 15.2V15.95H20.2C19.6333 15.95 19.1667 16.1417 18.8 16.525C18.4333 16.9083 18.25 17.3833 18.25 17.95V23.65C18.25 24.15 18.4417 24.5667 18.825 24.9C19.2083 25.2333 19.6667 25.4 20.2 25.4H26.75V29.05ZM7 40C6.2 40 5.5 39.7 4.9 39.1C4.3 38.5 4 37.8 4 37V11C4 10.2 4.3 9.5 4.9 8.9C5.5 8.3 6.2 8 7 8H41C41.8 8 42.5 8.3 43.1 8.9C43.7 9.5 44 10.2 44 11V37C44 37.8 43.7 38.5 43.1 39.1C42.5 39.7 41.8 40 41 40H7Z" fill="#97B35B"/>
</g>
<defs>
<clipPath id="clip0_27_140">
<rect width="48" height="48" fill="white"/>
</clipPath>
</defs>
</svg>
