<svg width="43" height="41" viewBox="0 0 43 41" fill="none" xmlns="http://www.w3.org/2000/svg">
<path d="M35.6704 11.6714V7.29464H31.2727V4.37679H35.6704V0H38.6023V4.37679H43V7.29464H38.6023V11.6714H35.6704ZM26.6795 18.8202C27.4125 18.8202 28.0355 18.5649 28.5486 18.0542C29.0616 17.5436 29.3182 16.9236 29.3182 16.1941C29.3182 15.4646 29.0616 14.8446 28.5486 14.334C28.0355 13.8233 27.4125 13.568 26.6795 13.568C25.9466 13.568 25.3236 13.8233 24.8105 14.334C24.2974 14.8446 24.0409 15.4646 24.0409 16.1941C24.0409 16.9236 24.2974 17.5436 24.8105 18.0542C25.3236 18.5649 25.9466 18.8202 26.6795 18.8202ZM12.4114 18.8202C13.1443 18.8202 13.7673 18.5649 14.2804 18.0542C14.7935 17.5436 15.05 16.9236 15.05 16.1941C15.05 15.4646 14.7935 14.8446 14.2804 14.334C13.7673 13.8233 13.1443 13.568 12.4114 13.568C11.6784 13.568 11.0554 13.8233 10.5423 14.334C10.0293 14.8446 9.77272 15.4646 9.77272 16.1941C9.77272 16.9236 10.0293 17.5436 10.5423 18.0542C11.0554 18.5649 11.6784 18.8202 12.4114 18.8202ZM19.5455 32.0478C21.6954 32.0478 23.6744 31.4723 25.4824 30.3214C27.2903 29.1705 28.6015 27.6062 29.4159 25.6285H9.675C10.522 27.6062 11.8413 29.1705 13.6329 30.3214C15.4246 31.4723 17.3954 32.0478 19.5455 32.0478ZM19.5584 40.85C16.8633 40.85 14.3306 40.3394 11.9602 39.3181C9.58974 38.2969 7.51685 36.9028 5.74147 35.1359C3.96609 33.3689 2.56534 31.3059 1.5392 28.9468C0.513062 26.5877 -5.9415e-06 24.067 -5.9415e-06 21.3847C-5.9415e-06 18.7024 0.514675 16.1779 1.54404 13.8112C2.57343 11.4445 3.97044 9.38577 5.73507 7.63506C7.4997 5.88434 9.57479 4.49836 11.9603 3.47711C14.3459 2.45586 16.8742 1.94524 19.5455 1.94524C21.0373 1.94524 22.4771 2.10734 23.8649 2.43155C25.2527 2.75575 26.5818 3.20964 27.8523 3.79321V11.1851H31.7614V15.0756H38.0159C38.3742 16.0942 38.643 17.1215 38.8222 18.1576C39.0013 19.1937 39.0909 20.2737 39.0909 21.3976C39.0909 24.0561 38.5778 26.5724 37.5517 28.9466C36.5256 31.3208 35.1329 33.386 33.3739 35.1422C31.6148 36.8985 29.5462 38.2888 27.1682 39.3133C24.7901 40.3378 22.2536 40.85 19.5584 40.85Z" fill="#97B35B"/>
</svg>
