<svg width="60" height="60" viewBox="0 0 60 60" fill="none" xmlns="http://www.w3.org/2000/svg">
<path d="M13.875 44.0625C16.5 42.3958 19.0938 41.1354 21.6562 40.2812C24.2188 39.4271 27 39 30 39C33 39 35.7917 39.4271 38.375 40.2812C40.9583 41.1354 43.5625 42.3958 46.1875 44.0625C48.0208 41.8125 49.3229 39.5417 50.0938 37.25C50.8646 34.9583 51.25 32.5417 51.25 30C51.25 23.9583 49.2188 18.9062 45.1562 14.8438C41.0938 10.7812 36.0417 8.75 30 8.75C23.9583 8.75 18.9062 10.7812 14.8438 14.8438C10.7812 18.9062 8.75 23.9583 8.75 30C8.75 32.5417 9.14583 34.9583 9.9375 37.25C10.7292 39.5417 12.0417 41.8125 13.875 44.0625ZM29.9884 31.875C27.5795 31.875 25.5521 31.0482 23.9062 29.3946C22.2604 27.741 21.4375 25.7098 21.4375 23.3009C21.4375 20.892 22.2643 18.8646 23.9179 17.2188C25.5715 15.5729 27.6027 14.75 30.0116 14.75C32.4205 14.75 34.4479 15.5768 36.0938 17.2304C37.7396 18.884 38.5625 20.9152 38.5625 23.3241C38.5625 25.733 37.7357 27.7604 36.0821 29.4062C34.4285 31.0521 32.3973 31.875 29.9884 31.875ZM29.9747 55C26.5103 55 23.2545 54.3438 20.2075 53.0312C17.1605 51.7188 14.5099 49.9271 12.2559 47.6562C10.002 45.3854 8.22917 42.7325 6.9375 39.6974C5.64583 36.6624 5 33.4195 5 29.9688C5 26.518 5.65625 23.2751 6.96875 20.2401C8.28125 17.205 10.0729 14.5625 12.3438 12.3125C14.6146 10.0625 17.2675 8.28125 20.3026 6.96875C23.3376 5.65625 26.5805 5 30.0312 5C33.482 5 36.7249 5.65625 39.7599 6.96875C42.795 8.28125 45.4375 10.0625 47.6875 12.3125C49.9375 14.5625 51.7188 17.2083 53.0312 20.25C54.3438 23.2917 55 26.5361 55 29.9834C55 33.4306 54.3438 36.6702 53.0312 39.7021C51.7188 42.734 49.9375 45.3854 47.6875 47.6562C45.4375 49.9271 42.789 51.7188 39.7419 53.0312C36.6949 54.3438 33.4391 55 29.9747 55Z" fill="#97B35B"/>
</svg>
