<svg width="60" height="60" viewBox="0 0 60 60" fill="none" xmlns="http://www.w3.org/2000/svg">
<path d="M11.25 52.5C10.25 52.5 9.375 52.125 8.625 51.375C7.875 50.625 7.5 49.75 7.5 48.75V11.25C7.5 10.25 7.875 9.375 8.625 8.625C9.375 7.875 10.25 7.5 11.25 7.5H28.0625C28.5938 7.5 29.0391 7.68073 29.3984 8.04219C29.7578 8.40369 29.9375 8.8516 29.9375 9.38594C29.9375 9.92031 29.7578 10.3646 29.3984 10.7188C29.0391 11.0729 28.5938 11.25 28.0625 11.25H11.25V48.75H28.0625C28.5938 48.75 29.0391 48.9307 29.3984 49.2922C29.7578 49.6537 29.9375 50.1016 29.9375 50.6359C29.9375 51.1703 29.7578 51.6146 29.3984 51.9688C29.0391 52.3229 28.5938 52.5 28.0625 52.5H11.25ZM45.3125 31.875H24.375C23.8438 31.875 23.3984 31.6943 23.0391 31.3328C22.6797 30.9713 22.5 30.5234 22.5 29.9891C22.5 29.4547 22.6797 29.0104 23.0391 28.6562C23.3984 28.3021 23.8438 28.125 24.375 28.125H45.1875L40.125 23.0625C39.75 22.6875 39.5729 22.25 39.5938 21.75C39.6146 21.25 39.8125 20.8125 40.1875 20.4375C40.5625 20.0625 41.0104 19.875 41.5312 19.875C42.0521 19.875 42.5 20.0625 42.875 20.4375L51.1875 28.75C51.5625 29.125 51.75 29.5625 51.75 30.0625C51.75 30.5625 51.5625 31 51.1875 31.375L42.9375 39.625C42.5708 40 42.1354 40.1771 41.6312 40.1562C41.1271 40.1354 40.6794 39.9375 40.2881 39.5625C39.9294 39.1875 39.75 38.7396 39.75 38.2188C39.75 37.6979 39.9375 37.25 40.3125 36.875L45.3125 31.875Z" fill="#97B35B"/>
</svg>
