<svg width="310" height="120" viewBox="0 0 310 120" fill="none" xmlns="http://www.w3.org/2000/svg">
<path d="M56.375 95.875H63.25V89.375C68.3333 88.7917 72.2917 87.2292 75.125 84.6875C77.9583 82.1458 79.375 78.75 79.375 74.5C79.375 70.25 78.1667 66.7917 75.75 64.125C73.3333 61.4583 69.25 58.9167 63.5 56.5C58.6667 54.5 55.1667 52.7083 53 51.125C50.8333 49.5417 49.75 47.4167 49.75 44.75C49.75 42.1667 50.6875 40.125 52.5625 38.625C54.4375 37.125 57 36.375 60.25 36.375C62.75 36.375 64.9167 36.9583 66.75 38.125C68.5833 39.2917 70.125 41.0417 71.375 43.375L77.375 40.5C75.9583 37.5833 74.0833 35.2917 71.75 33.625C69.4167 31.9583 66.6667 30.9583 63.5 30.625V24.25H56.625V30.625C52.375 31.2083 49.0208 32.7708 46.5625 35.3125C44.1042 37.8542 42.875 41 42.875 44.75C42.875 48.8333 44.125 52.0833 46.625 54.5C49.125 56.9167 52.875 59.1667 57.875 61.25C63.4583 63.5833 67.2917 65.6875 69.375 67.5625C71.4583 69.4375 72.5 71.75 72.5 74.5C72.5 77.1667 71.3958 79.3125 69.1875 80.9375C66.9792 82.5625 64.2083 83.375 60.875 83.375C57.625 83.375 54.7292 82.4583 52.1875 80.625C49.6458 78.7917 47.875 76.2917 46.875 73.125L40.5 75.25C42.25 79.0833 44.3958 82.1042 46.9375 84.3125C49.4792 86.5208 52.625 88.125 56.375 89.125V95.875ZM60 110C53.1667 110 46.7083 108.688 40.625 106.062C34.5417 103.438 29.2292 99.8542 24.6875 95.3125C20.1458 90.7708 16.5625 85.4583 13.9375 79.375C11.3125 73.2917 10 66.8333 10 60C10 53.0833 11.3125 46.5833 13.9375 40.5C16.5625 34.4167 20.1458 29.125 24.6875 24.625C29.2292 20.125 34.5417 16.5625 40.625 13.9375C46.7083 11.3125 53.1667 10 60 10C66.9167 10 73.4167 11.3125 79.5 13.9375C85.5833 16.5625 90.875 20.125 95.375 24.625C99.875 29.125 103.438 34.4167 106.062 40.5C108.688 46.5833 110 53.0833 110 60C110 66.8333 108.688 73.2917 106.062 79.375C103.438 85.4583 99.875 90.7708 95.375 95.3125C90.875 99.8542 85.5833 103.438 79.5 106.062C73.4167 108.688 66.9167 110 60 110Z" fill="white"/>
<path d="M96.34 52.74C97.34 51.06 98.66 49.76 100.3 48.84C101.98 47.88 103.96 47.4 106.24 47.4V54.48H104.5C101.82 54.48 99.78 55.16 98.38 56.52C97.02 57.88 96.34 60.24 96.34 63.6V81H89.5V47.94H96.34V52.74Z" fill="black"/>
<path d="M125.847 47.4C128.407 47.4 130.667 47.92 132.627 48.96C134.627 49.96 136.187 51.22 137.307 52.74V47.94H144.207V81.54C144.207 84.58 143.567 87.28 142.287 89.64C141.007 92.04 139.147 93.92 136.707 95.28C134.307 96.64 131.427 97.32 128.067 97.32C123.587 97.32 119.867 96.26 116.907 94.14C113.947 92.06 112.267 89.22 111.867 85.62H118.647C119.167 87.34 120.267 88.72 121.947 89.76C123.667 90.84 125.707 91.38 128.067 91.38C130.827 91.38 133.047 90.54 134.727 88.86C136.447 87.18 137.307 84.74 137.307 81.54V76.02C136.147 77.58 134.567 78.9 132.567 79.98C130.607 81.02 128.367 81.54 125.847 81.54C122.967 81.54 120.327 80.82 117.927 79.38C115.567 77.9 113.687 75.86 112.287 73.26C110.927 70.62 110.247 67.64 110.247 64.32C110.247 61 110.927 58.06 112.287 55.5C113.687 52.94 115.567 50.96 117.927 49.56C120.327 48.12 122.967 47.4 125.847 47.4ZM137.307 64.44C137.307 62.16 136.827 60.18 135.867 58.5C134.947 56.82 133.727 55.54 132.207 54.66C130.687 53.78 129.047 53.34 127.287 53.34C125.527 53.34 123.887 53.78 122.367 54.66C120.847 55.5 119.607 56.76 118.647 58.44C117.727 60.08 117.267 62.04 117.267 64.32C117.267 66.6 117.727 68.6 118.647 70.32C119.607 72.04 120.847 73.36 122.367 74.28C123.927 75.16 125.567 75.6 127.287 75.6C129.047 75.6 130.687 75.16 132.207 74.28C133.727 73.4 134.947 72.12 135.867 70.44C136.827 68.72 137.307 66.72 137.307 64.44ZM150.911 64.32C150.911 61 151.591 58.06 152.951 55.5C154.351 52.94 156.231 50.96 158.591 49.56C160.991 48.12 163.631 47.4 166.511 47.4C169.111 47.4 171.371 47.92 173.291 48.96C175.251 49.96 176.811 51.22 177.971 52.74V47.94H184.871V81H177.971V76.08C176.811 77.64 175.231 78.94 173.231 79.98C171.231 81.02 168.951 81.54 166.391 81.54C163.551 81.54 160.951 80.82 158.591 79.38C156.231 77.9 154.351 75.86 152.951 73.26C151.591 70.62 150.911 67.64 150.911 64.32ZM177.971 64.44C177.971 62.16 177.491 60.18 176.531 58.5C175.611 56.82 174.391 55.54 172.871 54.66C171.351 53.78 169.711 53.34 167.951 53.34C166.191 53.34 164.551 53.78 163.031 54.66C161.511 55.5 160.271 56.76 159.311 58.44C158.391 60.08 157.931 62.04 157.931 64.32C157.931 66.6 158.391 68.6 159.311 70.32C160.271 72.04 161.511 73.36 163.031 74.28C164.591 75.16 166.231 75.6 167.951 75.6C169.711 75.6 171.351 75.16 172.871 74.28C174.391 73.4 175.611 72.12 176.531 70.44C177.491 68.72 177.971 66.72 177.971 64.44ZM210.535 47.4C213.135 47.4 215.455 47.94 217.495 49.02C219.575 50.1 221.195 51.7 222.355 53.82C223.515 55.94 224.095 58.5 224.095 61.5V81H217.315V62.52C217.315 59.56 216.575 57.3 215.095 55.74C213.615 54.14 211.595 53.34 209.035 53.34C206.475 53.34 204.435 54.14 202.915 55.74C201.435 57.3 200.695 59.56 200.695 62.52V81H193.855V47.94H200.695V51.72C201.815 50.36 203.235 49.3 204.955 48.54C206.715 47.78 208.575 47.4 210.535 47.4ZM236.3 43.56C235.06 43.56 234.02 43.14 233.18 42.3C232.34 41.46 231.92 40.42 231.92 39.18C231.92 37.94 232.34 36.9 233.18 36.06C234.02 35.22 235.06 34.8 236.3 34.8C237.5 34.8 238.52 35.22 239.36 36.06C240.2 36.9 240.62 37.94 240.62 39.18C240.62 40.42 240.2 41.46 239.36 42.3C238.52 43.14 237.5 43.56 236.3 43.56ZM239.66 47.94V81H232.82V47.94H239.66ZM254.701 75.42H269.701V81H246.781V75.42L261.841 53.52H246.781V47.94H269.701V53.52L254.701 75.42ZM307.183 63.66C307.183 64.9 307.103 66.02 306.943 67.02H281.683C281.883 69.66 282.863 71.78 284.623 73.38C286.383 74.98 288.543 75.78 291.103 75.78C294.783 75.78 297.383 74.24 298.903 71.16H306.283C305.283 74.2 303.463 76.7 300.823 78.66C298.223 80.58 294.983 81.54 291.103 81.54C287.943 81.54 285.103 80.84 282.583 79.44C280.103 78 278.143 76 276.703 73.44C275.303 70.84 274.603 67.84 274.603 64.44C274.603 61.04 275.283 58.06 276.643 55.5C278.043 52.9 279.983 50.9 282.463 49.5C284.983 48.1 287.863 47.4 291.103 47.4C294.223 47.4 297.003 48.08 299.443 49.44C301.883 50.8 303.783 52.72 305.143 55.2C306.503 57.64 307.183 60.46 307.183 63.66ZM300.043 61.5C300.003 58.98 299.103 56.96 297.343 55.44C295.583 53.92 293.403 53.16 290.803 53.16C288.443 53.16 286.423 53.92 284.743 55.44C283.063 56.92 282.063 58.94 281.743 61.5H300.043Z" fill="white"/>
</svg>
