<svg width="60" height="60" viewBox="0 0 60 60" fill="none" xmlns="http://www.w3.org/2000/svg">
<path d="M40 27.5C40.7083 27.5 41.3021 27.2604 41.7812 26.7812C42.2604 26.3021 42.5 25.7083 42.5 25C42.5 24.2917 42.2604 23.6979 41.7812 23.2188C41.3021 22.7396 40.7083 22.5 40 22.5C39.2917 22.5 38.6979 22.7396 38.2188 23.2188C37.7396 23.6979 37.5 24.2917 37.5 25C37.5 25.7083 37.7396 26.3021 38.2188 26.7812C38.6979 27.2604 39.2917 27.5 40 27.5ZM21.875 21.25H30.625C31.1562 21.25 31.6016 21.0693 31.9609 20.7078C32.3203 20.3463 32.5 19.8984 32.5 19.3641C32.5 18.8297 32.3203 18.3854 31.9609 18.0312C31.6016 17.6771 31.1562 17.5 30.625 17.5H21.875C21.3438 17.5 20.8984 17.6807 20.5391 18.0422C20.1797 18.4037 20 18.8516 20 19.3859C20 19.9203 20.1797 20.3646 20.5391 20.7188C20.8984 21.0729 21.3438 21.25 21.875 21.25ZM14.375 52.5C13.5 52.5 12.6773 52.2091 11.9069 51.6273C11.1365 51.0455 10.6258 50.3364 10.375 49.5C9.33333 45.9167 8.46788 42.8238 7.77863 40.2214C7.08933 37.619 6.54006 35.3339 6.13081 33.3662C5.72156 31.3986 5.43079 29.6531 5.2585 28.1297C5.08617 26.6063 5 25.1464 5 23.75C5 19.9167 6.33333 16.6667 9 14C11.6667 11.3333 14.9167 10 18.75 10H31.25C32.375 8.5 33.8021 7.29167 35.5312 6.375C37.2604 5.45833 39.1667 5 41.25 5C42.2917 5 43.1771 5.36458 43.9062 6.09375C44.6354 6.82292 45 7.70833 45 8.75C45 9 44.9688 9.25 44.9062 9.5C44.8438 9.75 44.7708 9.97917 44.6875 10.1875C44.5208 10.6458 44.3646 11.1042 44.2188 11.5625C44.0729 12.0208 43.9583 12.5208 43.875 13.0625L49.5625 18.75H53.125C53.6562 18.75 54.1016 18.9297 54.4609 19.2891C54.8203 19.6484 55 20.0938 55 20.625V34.8125C55 35.2393 54.8854 35.6168 54.6562 35.9451C54.4271 36.2734 54.1042 36.5 53.6875 36.625L47.9421 38.5186L44.5625 49.8125C44.3114 50.6297 43.8563 51.282 43.1973 51.7692C42.5382 52.2564 41.7849 52.5 40.9375 52.5H33.75C32.7188 52.5 31.8359 52.1328 31.1016 51.3984C30.3672 50.6641 30 49.7812 30 48.75V47.5H25V48.75C25 49.7812 24.6328 50.6641 23.8984 51.3984C23.1641 52.1328 22.2812 52.5 21.25 52.5H14.375Z" fill="#97B35B"/>
</svg>
