<svg width="40" height="40" viewBox="0 0 40 40" fill="none" xmlns="http://www.w3.org/2000/svg">
<path d="M14 30.7H25.5C25.9667 30.7 26.3583 30.6 26.675 30.4C26.9917 30.2 27.2667 29.9 27.5 29.5L31.4 20.4C31.4667 20.2333 31.525 19.9833 31.575 19.65C31.625 19.3167 31.65 19.0667 31.65 18.9V17.7C31.65 17.2333 31.5417 16.8917 31.325 16.675C31.1083 16.4583 30.7667 16.35 30.3 16.35H19.6L21.05 9.45C21.1167 9.18333 21.1167 8.93333 21.05 8.7C20.9833 8.46667 20.8667 8.26667 20.7 8.1L19.65 7L11.6 15.7L11.2 16.5C11.0667 16.7667 11 17.05 11 17.35V27.7C11 28.4667 11.3 29.1583 11.9 29.775C12.5 30.3917 13.2 30.7 14 30.7ZM20 40C17.2667 40 14.6833 39.475 12.25 38.425C9.81667 37.375 7.69167 35.9417 5.875 34.125C4.05833 32.3083 2.625 30.1833 1.575 27.75C0.525 25.3167 0 22.7333 0 20C0 17.2333 0.525 14.6333 1.575 12.2C2.625 9.76667 4.05833 7.65 5.875 5.85C7.69167 4.05 9.81667 2.625 12.25 1.575C14.6833 0.525 17.2667 0 20 0C22.7667 0 25.3667 0.525 27.8 1.575C30.2333 2.625 32.35 4.05 34.15 5.85C35.95 7.65 37.375 9.76667 38.425 12.2C39.475 14.6333 40 17.2333 40 20C40 22.7333 39.475 25.3167 38.425 27.75C37.375 30.1833 35.95 32.3083 34.15 34.125C32.35 35.9417 30.2333 37.375 27.8 38.425C25.3667 39.475 22.7667 40 20 40Z" fill="#97B35B"/>
</svg>
