<svg width="40" height="40" viewBox="0 0 40 40" fill="none" xmlns="http://www.w3.org/2000/svg">
<path d="M40 20C40 31.0457 31.0457 40 20 40C8.9543 40 0 31.0457 0 20C0 8.9543 8.9543 0 20 0C31.0457 0 40 8.9543 40 20Z" fill="#97B35B"/>
<path d="M18.5479 21.6646L15.75 18.8667C15.5375 18.6542 15.2778 18.5479 14.9708 18.5479C14.6639 18.5479 14.4042 18.6542 14.1917 18.8667C13.9792 19.0792 13.8729 19.3369 13.8729 19.6399C13.8729 19.9429 13.9792 20.2046 14.1917 20.425L17.6979 23.9667C17.9104 24.1792 18.1583 24.2854 18.4417 24.2854C18.725 24.2854 18.9729 24.1792 19.1854 23.9667L25.7729 17.3792C25.9854 17.1651 26.0917 16.9109 26.0917 16.6165C26.0917 16.3222 25.9913 16.0806 25.7906 15.8917C25.5899 15.7028 25.3361 15.6142 25.0292 15.626C24.7222 15.6378 24.4743 15.7382 24.2854 15.9271L18.5479 21.6646ZM20 34.025C19.8744 34.025 19.7577 34.0132 19.6501 33.9896C19.5424 33.966 19.4347 33.9306 19.3271 33.8833C16.0451 32.7736 13.4479 30.7844 11.5354 27.9156C9.62292 25.0469 8.66667 21.8994 8.66667 18.4733V11.5354C8.66667 11.0807 8.79505 10.6715 9.05182 10.3078C9.30859 9.94405 9.64062 9.68034 10.0479 9.51667L19.2563 6.08125C19.516 5.98681 19.7639 5.93958 20 5.93958C20.2361 5.93958 20.484 5.98681 20.7437 6.08125L29.9521 9.51667C30.3594 9.68034 30.6914 9.94405 30.9482 10.3078C31.2049 10.6715 31.3333 11.0807 31.3333 11.5354V18.4733C31.3333 21.8994 30.3771 25.0469 28.4646 27.9156C26.5521 30.7844 23.9549 32.7736 20.6729 33.8833C20.5653 33.9306 20.4576 33.966 20.3499 33.9896C20.2423 34.0132 20.1256 34.025 20 34.025ZM20 31.9354C22.7153 31.0382 24.9288 29.3441 26.6406 26.8531C28.3524 24.3622 29.2083 21.5701 29.2083 18.4771V11.5354L20 8.06458L10.7917 11.5354V18.4771C10.7917 21.5701 11.6476 24.3622 13.3594 26.8531C15.0712 29.3441 17.2847 31.0382 20 31.9354Z" fill="#121212"/>
</svg>
